<?xml version="1.0" encoding="UTF-8"?>
<svg xmlns="http://www.w3.org/2000/svg" xmlns:xlink="http://www.w3.org/1999/xlink" version="1.1" id="Capa_1" x="0px" y="0px" viewBox="0 0 512 512" style="enable-background:new 0 0 512 512;" xml:space="preserve" width="512" height="512">
<g>
	
		<line style="fill:none;stroke:#000000;stroke-width:15;stroke-linecap:round;stroke-linejoin:round;stroke-miterlimit:10;" x1="153.92" y1="218.75" x2="153.92" y2="184.41"/>
	
		<line style="fill:none;stroke:#000000;stroke-width:15;stroke-linecap:round;stroke-linejoin:round;stroke-miterlimit:10;" x1="153.92" y1="427.46" x2="153.92" y2="407.55"/>
	<path style="fill:none;stroke:#000000;stroke-width:15;stroke-linecap:round;stroke-linejoin:round;stroke-miterlimit:10;" d="&#10;&#9;&#9;M153.92,62.6V43.96c0-8.83,7.16-16,16-16H488.5c8.84,0,16,7.17,16,16v424.08c0,8.83-7.16,16-16,16H210.49"/>
	<path style="fill:none;stroke:#000000;stroke-width:15;stroke-linecap:round;stroke-linejoin:round;stroke-miterlimit:10;" d="&#10;&#9;&#9;M153.919,427.462h52.429c2.291,0,4.147,1.857,4.147,4.147v52.429L153.919,427.462z"/>
	<path style="fill:none;stroke:#000000;stroke-width:15;stroke-linecap:round;stroke-linejoin:round;stroke-miterlimit:10;" d="&#10;&#9;&#9;M7.5,250.14v126.01c0,19.42,45.2,35.16,100.96,35.16c55.75,0,100.95-15.74,100.95-35.16V250.14"/>
	<path style="fill:none;stroke:#000000;stroke-width:15;stroke-linecap:round;stroke-linejoin:round;stroke-miterlimit:10;" d="&#10;&#9;&#9;M7.5,334.15c0,19.41,45.2,35.15,100.96,35.15c55.75,0,100.95-15.74,100.95-35.15"/>
	<path style="fill:none;stroke:#000000;stroke-width:15;stroke-linecap:round;stroke-linejoin:round;stroke-miterlimit:10;" d="&#10;&#9;&#9;M7.5,292.15c0,19.41,45.2,35.15,100.96,35.15c55.75,0,100.95-15.74,100.95-35.15"/>
	
		<ellipse style="fill:none;stroke:#000000;stroke-width:15;stroke-linecap:round;stroke-linejoin:round;stroke-miterlimit:10;" cx="108.456" cy="250.143" rx="100.956" ry="35.157"/>
	<g>
		<g>
			<path style="fill:none;stroke:#000000;stroke-width:15;stroke-linecap:round;stroke-linejoin:round;stroke-miterlimit:10;" d="&#10;&#9;&#9;&#9;&#9;M334.125,94.254v58.453c0.647,0.111,20.485,0,20.485,0"/>
		</g>
		<g>
			<path style="fill:none;stroke:#000000;stroke-width:15;stroke-linecap:round;stroke-linejoin:round;stroke-miterlimit:10;" d="&#10;&#9;&#9;&#9;&#9;M213.464,100.268c0,0-10.498-8.824-22.877-5.095c-11.367,3.424-12.956,16.531-4.733,21.892c0,0,8.069,3.6,17.019,6.901&#10;&#9;&#9;&#9;&#9;c21.544,7.947,12.264,28.79-5.08,28.79c-8.685,0-15.975-3.803-20.387-8.672"/>
		</g>
		<g>
			
				<line style="fill:none;stroke:#000000;stroke-width:15;stroke-linecap:round;stroke-linejoin:round;stroke-miterlimit:10;" x1="285.409" y1="133.804" x2="304.125" y2="152.52"/>
			
				<circle style="fill:none;stroke:#000000;stroke-width:15;stroke-linecap:round;stroke-linejoin:round;stroke-miterlimit:10;" cx="274.648" cy="123.505" r="29.251"/>
		</g>
	</g>
	<path style="fill:none;stroke:#000000;stroke-width:15;stroke-linecap:round;stroke-linejoin:round;stroke-miterlimit:10;" d="&#10;&#9;&#9;M387.074,184.407h-242.13c-7.732,0-14-6.268-14-14V76.603c0-7.732,6.268-14,14-14h242.13c7.732,0,14,6.268,14,14v93.804&#10;&#9;&#9;C401.074,178.139,394.806,184.407,387.074,184.407z"/>
	<g>
		
			<line style="fill:none;stroke:#000000;stroke-width:15;stroke-linecap:round;stroke-linejoin:round;stroke-miterlimit:10;" x1="370.856" y1="229.257" x2="344.139" y2="296.431"/>
		
			<polyline style="fill:none;stroke:#000000;stroke-width:15;stroke-linecap:round;stroke-linejoin:round;stroke-miterlimit:10;" points="&#10;&#9;&#9;&#9;402.856,232.477 420.797,262.236 402.856,293.21 &#9;&#9;"/>
		
			<polyline style="fill:none;stroke:#000000;stroke-width:15;stroke-linecap:round;stroke-linejoin:round;stroke-miterlimit:10;" points="&#10;&#9;&#9;&#9;312.139,232.477 294.197,262.236 312.139,293.21 &#9;&#9;"/>
	</g>
	
		<line style="fill:none;stroke:#000000;stroke-width:15;stroke-linecap:round;stroke-linejoin:round;stroke-miterlimit:10;" x1="253.215" y1="329.431" x2="461.78" y2="329.431"/>
	
		<line style="fill:none;stroke:#000000;stroke-width:15;stroke-linecap:round;stroke-linejoin:round;stroke-miterlimit:10;" x1="253.215" y1="362.431" x2="461.78" y2="362.431"/>
	
		<line style="fill:none;stroke:#000000;stroke-width:15;stroke-linecap:round;stroke-linejoin:round;stroke-miterlimit:10;" x1="253.215" y1="395.431" x2="461.78" y2="395.431"/>
	
		<line style="fill:none;stroke:#000000;stroke-width:15;stroke-linecap:round;stroke-linejoin:round;stroke-miterlimit:10;" x1="253.215" y1="428.431" x2="461.78" y2="428.431"/>
</g>















</svg>
